<svg xmlns="http://www.w3.org/2000/svg" width="444.156" height="195.031" viewBox="0 0 444.156 195.031">
  <path fill="currentColor" d="M759,447.552a67.777,67.777,0,0,0-2.4,17.6c0,5,2.2,7.4,6.6,7.4h53.2v-18.8c0-4.2-2-6.2-6.6-6.2H759Zm106.906,27.455c22.9,1.616,35.556,10.236,35.556,24.512,0,15.354-12.93,23.435-35.556,23.435a115.132,115.132,0,0,1-51.18-11.852c-3.5,5.118-6.734,13.468-6.734,20.2,0,11.583,28.283,28.284,64.648,28.284,46.062,0,73.806-25.859,73.806-58.991,0-29.9-21.549-47.678-53.6-54.413l47.678-51.718c-1.077-6.734-3.5-14.546-6.464-19.395-2.964-5.118-6.735-7.273-14.008-7.273H814.457a145.857,145.857,0,0,0-2.693,26.129q0,10.506,8.889,10.5h62.762l-38.25,42.022c1.078,8.35,3.5,16.431,6.465,21.28C854.593,473.121,858.364,474.468,865.907,475.007ZM1033.66,364.566c-47.413,0-76.774,35.287-76.774,97.511s29.361,97.511,76.774,97.511,76.5-35.287,76.5-97.511S1081.06,364.566,1033.66,364.566ZM1035,523.223c-23.16,0-33.4-22.9-33.4-63.032,0-42.29,11.58-59.26,30.71-59.26,22.89,0,33.13,22.9,33.13,63.032C1065.44,506.253,1053.86,523.223,1035,523.223Zm115.36-76.867,28.09-66.995c0.7-1.7.1-3-2.6-3h-7.39l-28.1,66.994c-0.7,1.7-.1,3,2.6,3h7.4Zm3.8-52.4c0-11.4-8.1-18.4-18-18.4s-18,7-18,18.4,8.1,18.4,18,18.4S1154.16,405.359,1154.16,393.96Zm-12.6.3c0,4.9-2.1,7.6-5,7.6-3.3,0-5.8-2.9-5.8-8.2,0-5,2.2-7.7,5.1-7.7C1139.16,385.961,1141.56,388.861,1141.56,394.26Zm59.19,34.5c0-11.4-8.1-18.4-18-18.4s-17.99,7-17.99,18.4,8.1,18.4,17.99,18.4S1200.75,440.156,1200.75,428.757Zm-12.6.3c0,4.9-2.1,7.6-5,7.6-3.3,0-5.8-2.9-5.8-8.2,0-5,2.2-7.7,5.1-7.7C1185.75,420.758,1188.15,423.658,1188.15,429.057Z" transform="translate(-756.594 -364.563)"/>
</svg>
