<svg xmlns="http://www.w3.org/2000/svg" viewBox="0 0 609.88 83.718">
  <path fill="#fe7200" d="M1281.84,429.226a22.555,22.555,0,0,1-5.46,2.325,27.887,27.887,0,0,1-7.68.91,19.463,19.463,0,0,1-8.54-1.772,16.948,16.948,0,0,1-6.17-4.966,21.537,21.537,0,0,1-3.69-7.7,38.3,38.3,0,0,1-1.22-9.979q0-12.562,5.11-18.54a16.872,16.872,0,0,1,13.5-5.978,50.251,50.251,0,0,1,7.73.506,20.126,20.126,0,0,1,5.51,1.617l2.73-11.728a37.786,37.786,0,0,0-6.92-1.921,55.446,55.446,0,0,0-10.27-.809,35.891,35.891,0,0,0-11.32,1.871,27.527,27.527,0,0,0-10.26,6.167,31.594,31.594,0,0,0-7.48,11.324q-2.88,7.028-2.88,17.44a49.639,49.639,0,0,0,2.57,17.036,31.315,31.315,0,0,0,6.93,11.425,25.838,25.838,0,0,0,10.06,6.369,36.762,36.762,0,0,0,12.08,1.972,52.115,52.115,0,0,0,10.26-1,21.222,21.222,0,0,0,8.24-3.31Zm39.79,14.154h15.07l-13.65-23.557-5.66-3.943,5.15-3.842,12.23-19.209h-14.05l-11.83,20.119-3.13,1.416V392.829h-13.15V443.38h13.15V422.452h3.54Zm50.56,0h13.15V392.829h-8.29l-18.2,23.759-4.15,7.178h-0.4l0.61-6.875V392.829h-13.15V443.38h8.29l18-22.849,4.35-7.381h0.3l-0.51,7.179V443.38Zm74.58-11.627h-7.38V392.829h-35.18a125.406,125.406,0,0,1-.91,16.277,90.871,90.871,0,0,1-2.17,11.526,47.118,47.118,0,0,1-2.53,7.33,25.291,25.291,0,0,1-2.07,3.791h-5.97v23.153h9.61l1.51-11.526h33.97l1.52,11.526h9.6V431.753Zm-37.1.607a29.361,29.361,0,0,0,2.22-5.561,71.243,71.243,0,0,0,1.77-7.178q0.765-3.841,1.27-7.937t0.71-7.734h10.61v28.41h-16.58Zm73.45,11.02h15.06l-13.65-23.557-5.66-3.943,5.16-3.842,12.23-19.209h-14.05l-11.83,20.119-3.14,1.416V392.829H1454.1V443.38h13.14V422.452h3.54Zm22.96-37.812a30.381,30.381,0,0,1,7.23-2.124,46.249,46.249,0,0,1,8.34-.808q5.25,0,6.77,2.477t0.81,8.138a65.928,65.928,0,0,0-12.08.455,29.571,29.571,0,0,0-9.3,2.73,14.966,14.966,0,0,0-5.97,5.156,14.085,14.085,0,0,0-2.07,7.836,15.586,15.586,0,0,0,1.11,6.016,13.653,13.653,0,0,0,7.99,7.683,18,18,0,0,0,6.37,1.062,17.021,17.021,0,0,0,9.25-2.275,18.027,18.027,0,0,0,5.61-5.409h0.51l2.12,6.976h10.72a31.625,31.625,0,0,1-1.52-7.734c-0.2-2.73-.29-5.543-0.25-8.442s0.15-5.847.35-8.847,0.3-5.981.3-8.947a28.089,28.089,0,0,0-.86-7.28,12.667,12.667,0,0,0-8.54-9.15,26.4,26.4,0,0,0-8.79-1.263,61.812,61.812,0,0,0-11.63,1.061,43.288,43.288,0,0,0-9.61,2.882Zm8.95,26.236a5.711,5.711,0,0,1-1.67-4.4,4.505,4.505,0,0,1,1.31-3.337,8.659,8.659,0,0,1,3.54-2.022,22.034,22.034,0,0,1,5.11-.91,36.1,36.1,0,0,1,6.01.1v6.571a12.324,12.324,0,0,1-3.44,3.792,10.093,10.093,0,0,1-6.26,1.769A6.434,6.434,0,0,1,1515.03,431.8Zm93.67,11.576h13.14V392.829H1608.7v19.007h-16.48V392.829h-13.15V443.38h13.15V423.463h16.48V443.38Zm27.97-37.812a30.668,30.668,0,0,1,7.23-2.124,46.249,46.249,0,0,1,8.34-.808q5.25,0,6.77,2.477t0.81,8.138a65.965,65.965,0,0,0-12.08.455,29.571,29.571,0,0,0-9.3,2.73,14.966,14.966,0,0,0-5.97,5.156,14.085,14.085,0,0,0-2.07,7.836,15.586,15.586,0,0,0,1.11,6.016,13.653,13.653,0,0,0,7.99,7.683,18.039,18.039,0,0,0,6.37,1.062,17.021,17.021,0,0,0,9.25-2.275,18.027,18.027,0,0,0,5.61-5.409h0.51l2.12,6.976h10.72a31.625,31.625,0,0,1-1.52-7.734c-0.2-2.73-.29-5.543-0.25-8.442s0.15-5.847.35-8.847,0.31-5.981.31-8.947a28.529,28.529,0,0,0-.86-7.28,13.51,13.51,0,0,0-2.94-5.561,13.355,13.355,0,0,0-5.61-3.589,26.4,26.4,0,0,0-8.79-1.263,61.89,61.89,0,0,0-11.63,1.061,43.03,43.03,0,0,0-9.6,2.882Zm8.95,26.236a5.747,5.747,0,0,1-1.67-4.4,4.544,4.544,0,0,1,1.31-3.337,8.659,8.659,0,0,1,3.54-2.022,22.132,22.132,0,0,1,5.11-.91,36.1,36.1,0,0,1,6.01.1v6.571a12.282,12.282,0,0,1-3.43,3.792,10.124,10.124,0,0,1-6.27,1.769A6.434,6.434,0,0,1,1645.62,431.8Zm64.05,11.475c2.35,0.269,5.12.488,8.29,0.657s6.16,0.253,8.99.253q12.84,0,18.66-3.741t5.81-11.323a12.5,12.5,0,0,0-2.42-7.937q-2.43-3.082-7.89-4.3v-0.4a11.56,11.56,0,0,0,6.37-4.853,13.078,13.078,0,0,0,2.02-6.875q0-6.37-4.7-9.555t-15.82-3.184c-3.85,0-7.43.1-10.77,0.3s-6.19.4-8.54,0.607v50.349Zm12.84-21.737h6.77q5.055,0,7.03,1.668a5.383,5.383,0,0,1,1.97,4.3,5.17,5.17,0,0,1-2.33,4.651q-2.325,1.516-7.78,1.516c-1.22,0-2.23-.033-3.04-0.1s-1.68-.167-2.62-0.3V421.542Zm0-8.088V402.838c0.74-.067,1.56-0.135,2.47-0.2s2.14-.1,3.69-0.1q4.65,0,6.42,1.365a4.736,4.736,0,0,1,1.77,3.994,4.808,4.808,0,0,1-2.07,3.994,8.554,8.554,0,0,1-5.31,1.567h-6.97Zm70.47,16.783a19.952,19.952,0,0,1-4.15,2.072,16.385,16.385,0,0,1-5.66.86,11.527,11.527,0,0,1-5.31-1.163,9.879,9.879,0,0,1-3.69-3.185,14.611,14.611,0,0,1-2.12-4.752,23.348,23.348,0,0,1-.71-5.965q0-7.886,2.83-11.475t8.29-3.589a20.313,20.313,0,0,1,5.21.607,26.681,26.681,0,0,1,4.6,1.718l3.13-10.717a30.428,30.428,0,0,0-6.12-2.325,35.524,35.524,0,0,0-8.94-.91q-11.025,0-16.79,6.926t-5.76,19.765a48.1,48.1,0,0,0,1.16,10.92,22.276,22.276,0,0,0,3.8,8.442,17.439,17.439,0,0,0,6.82,5.409,24.611,24.611,0,0,0,10.26,1.921,33.84,33.84,0,0,0,8.85-1.163,21.968,21.968,0,0,0,7.33-3.387Zm45.47,0.2a21.346,21.346,0,0,1-12.39,3.842q-6.645,0-9.62-3.235t-3.28-9.605h30.24q0.495-2.628.75-5.055a43.617,43.617,0,0,0,.25-4.55,24.513,24.513,0,0,0-1.72-9.807,16.329,16.329,0,0,0-4.55-6.268,17.346,17.346,0,0,0-6.47-3.337,27.824,27.824,0,0,0-7.48-1.011q-11.52,0-17.89,6.673t-6.37,20.018q0,12.436,5.66,19.564t17.89,7.128a36.142,36.142,0,0,0,11.08-1.669,25.832,25.832,0,0,0,8.24-4.094Zm-7.94-25.579q2.07,2.934,1.66,8.391h-18.7a15.278,15.278,0,0,1,2.96-8.24q2.46-3.083,7.59-3.083C1826.97,401.928,1829.14,402.906,1830.51,404.86Zm-23.36-20.423a7.128,7.128,0,0,0,5.2,1.921,6.519,6.519,0,0,0,6.98-6.875,7.063,7.063,0,0,0-1.87-5.156,6.809,6.809,0,0,0-5.11-1.921,7.133,7.133,0,0,0-5.2,1.921,6.848,6.848,0,0,0-1.97,5.156A6.59,6.59,0,0,0,1807.15,384.437Zm22.04,0a6.767,6.767,0,0,0,5.1,1.921,7.137,7.137,0,0,0,5.21-1.921,6.627,6.627,0,0,0,1.97-4.954,6.886,6.886,0,0,0-1.97-5.156,7.141,7.141,0,0,0-5.21-1.921,6.771,6.771,0,0,0-5.1,1.921,7.063,7.063,0,0,0-1.87,5.156A6.79,6.79,0,0,0,1829.19,384.437Z" transform="translate(-1234.53 -371.188)"/>
</svg>
